<svg width="44" height="44" viewBox="0 0 44 44" fill="none" xmlns="http://www.w3.org/2000/svg">
<path d="M22.0004 3.24805C32.3571 3.24805 40.7528 11.6438 40.7528 22.0004C40.7528 32.3571 32.3571 40.7528 22.0004 40.7528C11.6438 40.7528 3.24805 32.3571 3.24805 22.0004C3.24805 11.6438 11.6438 3.24805 22.0004 3.24805ZM22.0004 4.71471C12.4538 4.71471 4.71471 12.4538 4.71471 22.0004C4.71471 31.5471 12.4538 39.2861 22.0004 39.2861C31.5471 39.2861 39.2861 31.5471 39.2861 22.0004C39.2861 12.4538 31.5471 4.71471 22.0004 4.71471ZM29.7691 18.0669C29.9357 18.1095 30.0908 18.1891 30.2232 18.2998C30.3551 18.4101 30.4611 18.5484 30.5337 18.7049C30.606 18.8607 30.6433 19.0308 30.6433 19.2112C30.6376 19.4909 30.5361 19.7603 30.3557 19.973C30.1744 20.1867 29.9248 20.33 29.6547 20.3766C28.008 20.6817 26.345 20.8878 24.6757 20.9937C24.5707 21.0007 24.4682 21.0294 24.3742 21.0782C24.2798 21.1271 24.196 21.1951 24.128 21.2784C24.0596 21.362 24.0085 21.4591 23.978 21.5637C23.9627 21.6161 23.9527 21.6699 23.9479 21.7182L23.9445 21.7857L23.951 21.8902L24.0921 23.172C24.2684 24.7493 24.5924 26.3052 25.0585 27.8155L25.2399 28.3796L25.4358 28.9431L26.347 31.4211C26.3999 31.5661 26.4238 31.7202 26.4173 31.8744C26.4108 32.0288 26.374 32.1804 26.3091 32.3204C26.244 32.4606 26.1519 32.5864 26.0381 32.6905C25.9239 32.7948 25.7901 32.875 25.6598 32.9207C25.5302 32.9723 25.3923 32.9993 25.2421 33.0004C25.0179 32.9963 24.8 32.9262 24.6148 32.799C24.5113 32.7279 24.4202 32.6405 24.3391 32.5297L24.2611 32.4108L24.2059 32.3005L23.9732 31.795C23.344 30.4195 22.7693 29.0718 22.2451 27.7367L22.0023 27.1064L21.6888 27.9181C21.5167 28.3538 21.3403 28.7882 21.1598 29.2212L20.8859 29.8695L20.4636 30.8374L20.0284 31.7978L19.8205 32.225C19.7132 32.5156 19.4961 32.7517 19.2163 32.8809C18.9353 33.0106 18.6147 33.0215 18.3258 32.9112C18.0379 32.8014 17.8054 32.5804 17.6791 32.2975C17.5921 32.1026 17.5599 31.8885 17.5883 31.6635L17.6126 31.5272L17.6494 31.4063L18.5595 28.931C19.0993 27.4416 19.4962 25.9034 19.7446 24.341L19.8308 23.754L19.904 23.1571L20.05 21.8817C20.0631 21.7723 20.0541 21.6613 20.0237 21.5557C19.9934 21.4502 19.9423 21.3523 19.8738 21.268C19.8056 21.184 19.7215 21.1152 19.6267 21.0657C19.5323 21.0163 19.4292 20.9871 19.3263 20.9798C17.6416 20.8731 15.9645 20.6638 14.3056 20.3536C14.1549 20.3259 14.0113 20.2683 13.883 20.184C13.7551 20.1 13.6451 19.9913 13.559 19.8641C13.4733 19.7373 13.4132 19.5947 13.3822 19.4447C13.3511 19.2947 13.3496 19.1399 13.3767 18.9952C13.4027 18.8436 13.4582 18.6986 13.5402 18.5686C13.6224 18.4383 13.7296 18.3258 13.8555 18.2377C13.9818 18.1494 14.1244 18.0876 14.2749 18.0559C14.4256 18.0242 14.581 18.0234 14.7274 18.0527C19.5323 18.9555 24.4592 18.9555 29.2589 18.0536C29.4279 18.0197 29.6022 18.0242 29.7691 18.0669ZM24.0579 11.8679C25.1919 13.0209 25.1919 14.8876 24.0579 16.0405C22.9202 17.1971 21.073 17.1971 19.9354 16.0405C18.8013 14.8876 18.8013 13.0209 19.9354 11.8679C21.073 10.7113 22.9202 10.7113 24.0579 11.8679Z" fill="white"/>
</svg>
