<svg width="50" height="50" viewBox="0 0 50 50" fill="none" xmlns="http://www.w3.org/2000/svg">
<g clip-path="url(#clip0_113_399)">
<path d="M17.1875 21.0941H32.8125C33.6758 21.0941 34.375 20.3948 34.375 19.5316V17.9691C34.375 17.1058 33.6758 16.4066 32.8125 16.4066H17.1875C16.3242 16.4066 15.625 17.1058 15.625 17.9691V19.5316C15.625 20.3948 16.3242 21.0941 17.1875 21.0941ZM15.625 28.9066C15.625 29.7698 16.3242 30.4691 17.1875 30.4691H32.8125C33.6758 30.4691 34.375 29.7698 34.375 28.9066V27.3441C34.375 26.4808 33.6758 25.7816 32.8125 25.7816H17.1875C16.3242 25.7816 15.625 26.4808 15.625 27.3441V28.9066ZM25 40.7357C23.3965 40.7357 21.793 40.2415 20.4238 39.2523L0 24.4983V45.3128C0 47.9017 2.09863 50.0003 4.6875 50.0003H45.3125C47.9014 50.0003 50 47.9017 50 45.3128V24.4983L29.5762 39.2523C28.207 40.2405 26.6035 40.7357 25 40.7357ZM48.2041 15.9134C47.3398 15.2357 46.5205 14.598 45.3125 13.6858V9.3753C45.3125 6.78643 43.2139 4.6878 40.625 4.6878H33.0518C32.7549 4.47296 32.4785 4.27179 32.1689 4.04718C30.5273 2.84893 27.2656 -0.0338784 25 0.000301306C22.7344 -0.0338784 19.4736 2.84893 17.8311 4.04718C17.5215 4.27179 17.2451 4.47296 16.9482 4.6878H9.375C6.78613 4.6878 4.6875 6.78643 4.6875 9.3753V13.6858C3.47949 14.597 2.66016 15.2357 1.7959 15.9134C1.23648 16.3518 0.784096 16.9117 0.472963 17.5507C0.161829 18.1897 9.62701e-05 18.8911 0 19.6019L0 20.6419L9.375 27.4144V9.3753H40.625V27.4144L50 20.6419V19.6019C50 18.1624 49.3379 16.8021 48.2041 15.9134Z" fill="#046942"/>
</g>
<defs>
<clipPath id="clip0_113_399">
<rect width="50" height="50" fill="white"/>
</clipPath>
</defs>
</svg>
