<svg width="50" height="50" viewBox="0 0 50 50" fill="none" xmlns="http://www.w3.org/2000/svg">
<g clip-path="url(#clip0_113_66)">
<path d="M48.1827 2.40242L38.0264 0.0586732C36.9229 -0.195233 35.7901 0.380939 35.3409 1.4161L30.6534 12.3536C30.2432 13.3106 30.5166 14.4337 31.3272 15.088L37.2452 19.9317C33.7295 27.422 27.587 33.6524 19.9405 37.2364L15.0967 31.3184C14.4327 30.5079 13.3194 30.2345 12.3623 30.6446L1.42485 35.3321C0.379923 35.7911 -0.196248 36.9239 0.0576578 38.0274L2.40141 48.1837C2.64555 49.2384 3.58305 50.0001 4.68656 50.0001C29.6963 50.0001 49.9991 29.7364 49.9991 4.68758C49.9991 3.59383 49.2471 2.64656 48.1827 2.40242Z" fill="#046942"/>
</g>
<defs>
<clipPath id="clip0_113_66">
<rect width="50" height="50" fill="white"/>
</clipPath>
</defs>
</svg>
