<svg width="2162" height="83" viewBox="0 0 2162 83" fill="none" xmlns="http://www.w3.org/2000/svg">
<g clip-path="url(#clip0_113_70)">
<path d="M1249.45 77.605C1200.6 79.68 1138.14 77.273 1086.27 73.206C1035.26 69.139 933.033 53.701 869.059 43.575C705.232 16.849 580.093 6.64 452.792 2.324C401.786 0.580998 347.537 -0.581002 229.314 4.399C111.091 9.379 -0.215972 25.647 -0.215972 25.647V83H2161.3V57.851C2161.3 57.851 2005.69 30.793 1818.95 32.536C1734.23 33.117 1618.38 38.097 1529.34 51.128C1483.52 57.851 1416.52 66.234 1357.08 71.214C1298.29 76.443 1271.71 76.775 1249.45 77.605Z" fill="white"/>
</g>
<defs>
<clipPath id="clip0_113_70">
<rect width="2161.3" height="83" fill="white" transform="matrix(-1 0 0 -1 2161.3 83)"/>
</clipPath>
</defs>
</svg>
