<svg width="35" height="35" viewBox="0 0 35 35" fill="none" xmlns="http://www.w3.org/2000/svg">
<path d="M24.3601 18.655C24.7801 18.235 24.9551 17.64 24.9551 17.045C24.9551 16.485 24.7801 15.89 24.3601 15.61L14.0001 5.11C13.5801 4.655 13.1251 4.375 12.3901 4.375C11.8301 4.375 11.3751 4.515 10.9551 4.97C10.5001 5.39 10.2201 5.985 10.2201 6.545C10.2201 7.14 10.3601 7.735 10.7801 8.155L19.7051 17.22L10.6401 26.985C10.2201 27.405 10.0801 28 10.0801 28.595C10.0801 29.155 10.3601 29.75 10.7801 30.205C11.2351 30.485 11.8301 30.625 12.3901 30.625C12.9851 30.625 13.5801 30.345 14.0001 29.89L24.3601 18.655Z" fill="#EDEDED" fill-opacity="0.9"/>
</svg>
