<svg width="20" height="16" viewBox="0 0 20 16" fill="none" xmlns="http://www.w3.org/2000/svg">
<g clip-path="url(#clip0_113_454)">
<path d="M2.59375 14.5019C2.59375 15.3301 3.26571 16.0021 4.09395 16.0021H15.0954C15.9236 16.0021 16.5956 15.3301 16.5956 14.5019V6.00078H2.59375V14.5019ZM12.5951 8.37609C12.5951 8.16981 12.7638 8.00104 12.9701 8.00104H14.2203C14.4265 8.00104 14.5953 8.16981 14.5953 8.37609V9.62625C14.5953 9.83253 14.4265 10.0013 14.2203 10.0013H12.9701C12.7638 10.0013 12.5951 9.83253 12.5951 9.62625V8.37609ZM12.5951 12.3766C12.5951 12.1703 12.7638 12.0016 12.9701 12.0016H14.2203C14.4265 12.0016 14.5953 12.1703 14.5953 12.3766V13.6268C14.5953 13.8331 14.4265 14.0018 14.2203 14.0018H12.9701C12.7638 14.0018 12.5951 13.8331 12.5951 13.6268V12.3766ZM8.59453 8.37609C8.59453 8.16981 8.7633 8.00104 8.96958 8.00104H10.2197C10.426 8.00104 10.5948 8.16981 10.5948 8.37609V9.62625C10.5948 9.83253 10.426 10.0013 10.2197 10.0013H8.96958C8.7633 10.0013 8.59453 9.83253 8.59453 9.62625V8.37609ZM8.59453 12.3766C8.59453 12.1703 8.7633 12.0016 8.96958 12.0016H10.2197C10.426 12.0016 10.5948 12.1703 10.5948 12.3766V13.6268C10.5948 13.8331 10.426 14.0018 10.2197 14.0018H8.96958C8.7633 14.0018 8.59453 13.8331 8.59453 13.6268V12.3766ZM4.59401 8.37609C4.59401 8.16981 4.76278 8.00104 4.96906 8.00104H6.21922C6.4255 8.00104 6.59427 8.16981 6.59427 8.37609V9.62625C6.59427 9.83253 6.4255 10.0013 6.21922 10.0013H4.96906C4.76278 10.0013 4.59401 9.83253 4.59401 9.62625V8.37609ZM4.59401 12.3766C4.59401 12.1703 4.76278 12.0016 4.96906 12.0016H6.21922C6.4255 12.0016 6.59427 12.1703 6.59427 12.3766V13.6268C6.59427 13.8331 6.4255 14.0018 6.21922 14.0018H4.96906C4.76278 14.0018 4.59401 13.8331 4.59401 13.6268V12.3766ZM15.0954 2.00026H13.5952V0.500065C13.5952 0.225029 13.3702 0 13.0951 0H12.095C11.82 0 11.5949 0.225029 11.5949 0.500065V2.00026H7.5944V0.500065C7.5944 0.225029 7.36937 0 7.09434 0H6.09421C5.81917 0 5.59414 0.225029 5.59414 0.500065V2.00026H4.09395C3.26571 2.00026 2.59375 2.67222 2.59375 3.50046V5.00065H16.5956V3.50046C16.5956 2.67222 15.9236 2.00026 15.0954 2.00026Z" fill="white"/>
</g>
<defs>
<clipPath id="clip0_113_454">
<rect width="19.19" height="16.0021" fill="white"/>
</clipPath>
</defs>
</svg>
