<svg width="22" height="22" viewBox="0 0 22 22" fill="none" xmlns="http://www.w3.org/2000/svg">
<path d="M19.25 8.9375H13.0625V2.75C13.0625 1.99074 12.4468 1.375 11.6875 1.375H10.3125C9.55324 1.375 8.9375 1.99074 8.9375 2.75V8.9375H2.75C1.99074 8.9375 1.375 9.55324 1.375 10.3125V11.6875C1.375 12.4468 1.99074 13.0625 2.75 13.0625H8.9375V19.25C8.9375 20.0093 9.55324 20.625 10.3125 20.625H11.6875C12.4468 20.625 13.0625 20.0093 13.0625 19.25V13.0625H19.25C20.0093 13.0625 20.625 12.4468 20.625 11.6875V10.3125C20.625 9.55324 20.0093 8.9375 19.25 8.9375Z" fill="#046942"/>
</svg>
