<svg width="2162" height="83" viewBox="0 0 2162 83" fill="none" xmlns="http://www.w3.org/2000/svg">
<g clip-path="url(#clip0_113_330)">
<path d="M911.852 5.395C960.698 3.32 1023.16 5.727 1075.03 9.794C1126.04 13.861 1228.27 29.299 1292.24 39.425C1456.07 66.151 1581.21 76.36 1708.51 80.676C1759.51 82.419 1813.76 83.581 1931.99 78.601C2050.21 73.621 2161.52 57.353 2161.52 57.353V0H0V25.149C0 25.149 155.614 52.207 342.35 50.464C427.073 49.883 542.919 44.903 631.964 31.872C677.784 25.149 744.784 16.766 804.22 11.786C863.007 6.557 889.591 6.225 911.852 5.395Z" fill="white"/>
</g>
<defs>
<clipPath id="clip0_113_330">
<rect width="2161.3" height="83" fill="white"/>
</clipPath>
</defs>
</svg>
