<svg width="25" height="25" viewBox="0 0 25 25" fill="none" xmlns="http://www.w3.org/2000/svg">
<g clip-path="url(#clip0_113_435)">
<path d="M22.9562 9.15L25 6.92605H20.4714C18.1229 5.32751 15.3478 4.47266 12.5069 4.47266C9.66609 4.47266 6.89097 5.32751 4.54253 6.92605H0L2.04384 9.15C0.827838 10.2719 0.106651 11.8305 0.0385612 13.4836C-0.0295283 15.1367 0.561043 16.7493 1.68066 17.9675C2.80027 19.1856 4.35745 19.9098 6.01042 19.981C7.6634 20.0523 9.27712 19.4648 10.4974 18.3475L12.5 20.5263L14.5013 18.3488C15.3928 19.1748 16.5058 19.7229 17.7041 19.9258C18.9024 20.1288 20.1338 19.9778 21.2476 19.4914C22.3614 19.0051 23.3091 18.2044 23.9747 17.1875C24.6402 16.1706 24.9948 14.9817 24.9948 13.7663H24.9935C24.9946 12.8973 24.8139 12.0377 24.463 11.2427C24.1122 10.4477 23.5989 9.73486 22.9562 9.15ZM6.2526 17.9933C5.41658 17.9933 4.59934 17.7454 3.90421 17.2809C3.20908 16.8165 2.6673 16.1563 2.34737 15.3839C2.02744 14.6115 1.94373 13.7616 2.10683 12.9417C2.26993 12.1217 2.67251 11.3685 3.26367 10.7774C3.85482 10.1862 4.608 9.78365 5.42796 9.62055C6.24791 9.45745 7.09782 9.54116 7.87021 9.86109C8.64259 10.181 9.30275 10.7228 9.76722 11.4179C10.2317 12.1131 10.4796 12.9303 10.4796 13.7663C10.4796 14.8874 10.0343 15.9625 9.24154 16.7553C8.44883 17.548 7.37367 17.9933 6.2526 17.9933ZM12.5 13.6444C12.5 10.8627 10.4766 8.47596 7.80859 7.45556C9.29504 6.83615 10.8894 6.51725 12.4998 6.51725C14.1101 6.51725 15.7045 6.83615 17.191 7.45556C14.523 8.47639 12.5 10.8631 12.5 13.6444ZM18.7448 17.9933H18.7444C17.6231 17.9933 16.5479 17.5478 15.7551 16.755C14.9623 15.9621 14.5169 14.8868 14.5169 13.7656C14.517 12.6443 14.9624 11.569 15.7552 10.7762C16.548 9.98342 17.6234 9.53802 18.7446 9.53802C19.8658 9.53802 20.9411 9.98342 21.7339 10.7762C22.5268 11.569 22.9722 12.6443 22.9722 13.7656C22.9723 14.8868 22.5269 15.9621 21.7341 16.755C20.9413 17.5478 19.866 17.9933 18.7448 17.9933ZM6.2526 11.5502H6.25217C5.81386 11.5502 5.38539 11.6802 5.02095 11.9237C4.6565 12.1672 4.37245 12.5133 4.20472 12.9182C4.03698 13.3232 3.9931 13.7688 4.07861 14.1987C4.16412 14.6286 4.37518 15.0234 4.68512 15.3334C4.99505 15.6433 5.38993 15.8544 5.81982 15.9399C6.24971 16.0254 6.6953 15.9815 7.10025 15.8138C7.5052 15.646 7.85131 15.362 8.09483 14.9975C8.33834 14.6331 8.46832 14.2046 8.46832 13.7663V13.7615C8.46803 13.4709 8.41049 13.1831 8.29899 12.9146C8.18749 12.6462 8.0242 12.4023 7.81845 12.197C7.6127 11.9916 7.36852 11.8288 7.09985 11.7178C6.83119 11.6069 6.54329 11.5499 6.2526 11.5502ZM18.7448 11.5502C18.3065 11.5502 17.878 11.6802 17.5136 11.9237C17.1491 12.1672 16.8651 12.5133 16.6973 12.9182C16.5296 13.3232 16.4857 13.7688 16.5712 14.1987C16.6567 14.6286 16.8678 15.0234 17.1777 15.3334C17.4877 15.6433 17.8826 15.8544 18.3124 15.9399C18.7423 16.0254 19.1879 15.9815 19.5929 15.8138C19.9978 15.646 20.3439 15.362 20.5874 14.9975C20.831 14.6331 20.9609 14.2046 20.9609 13.7663C20.9609 13.1786 20.7275 12.6149 20.3118 12.1993C19.8962 11.7837 19.3325 11.5502 18.7448 11.5502Z" fill="white"/>
</g>
<defs>
<clipPath id="clip0_113_435">
<rect width="25" height="25" fill="white"/>
</clipPath>
</defs>
</svg>
