<svg preserveAspectRatio="none" width="100%" height="100%" overflow="visible" style="display: block;" viewBox="0 0 35 35" fill="none" xmlns="http://www.w3.org/2000/svg">
<g id="SVG">
<path id="Vector" d="M24.36 18.655C24.78 18.235 24.955 17.64 24.955 17.045C24.955 16.485 24.78 15.89 24.36 15.61L14 5.11C13.58 4.655 13.125 4.375 12.39 4.375C11.83 4.375 11.375 4.515 10.955 4.97C10.5 5.39 10.22 5.985 10.22 6.545C10.22 7.14 10.36 7.735 10.78 8.155L19.705 17.22L10.64 26.985C10.22 27.405 10.08 28 10.08 28.595C10.08 29.155 10.36 29.75 10.78 30.205C11.235 30.485 11.83 30.625 12.39 30.625C12.985 30.625 13.58 30.345 14 29.89L24.36 18.655Z" fill="var(--fill-0, #EDEDED)" fill-opacity="0.9"/>
</g>
</svg>
